<mxfile host="65bd71144e">
    <diagram id="O-IQ1Baf90pfi-VNzeyQ" name="Page-1">
        <mxGraphModel dx="996" dy="1244" grid="1" gridSize="8" guides="1" tooltips="1" connect="1" arrows="1" fold="1" page="1" pageScale="1" pageWidth="1169" pageHeight="827" background="#ffffff" math="0" shadow="0">
            <root>
                <MiscDiagram modelType="MiscDiagram" lastModifiedUserId="dbush@ibm.com" description="" lastModified="2022-01-26T00:18:08Z" _id="miscdiagram_r1vBKtAXY" label="DR Containerized DB with Tunnel" id="0">
                    <mxCell/>
                </MiscDiagram>
                <mxCell id="1" parent="0"/>
                <mxCell id="miscdiagram_r1vBKtAXY_23dyRA0K81O1" value="Enterprise Load Balancers" style="aspect=fixed;perimeter=ellipsePerimeter;html=1;align=center;shadow=0;dashed=0;fontColor=#4277BB;labelBackgroundColor=#ffffff;fontSize=12;spacingTop=3;image;image=data:image/svg+xml,PHN2ZyB4bWxucz0iaHR0cDovL3d3dy53My5vcmcvMjAwMC9zdmciIHdpZHRoPSIxMDAuMDMyIiBoZWlnaHQ9IjEwMC4wMzIiIHZpZXdCb3g9IjAgMCA3NSA3NSIgZmlsbD0ibm9uZSIgZmlsbC1ydWxlPSJldmVub2RkIiBvdmVyZmxvdz0idmlzaWJsZSIgc3Ryb2tlLWxpbmVjYXA9InNxdWFyZSIgc3Ryb2tlLW1pdGVybGltaXQ9IjMiIGNvbG9yLWludGVycG9sYXRpb24tZmlsdGVycz0ic1JHQiI+PHN0eWxlPjwhW0NEQVRBWy5Ce2NvbG9yLWludGVycG9sYXRpb24tZmlsdGVyczpzUkdCfV1dPjwvc3R5bGU+PGNpcmNsZSByPSIzNy41IiBjeD0iMzcuNSIgY3k9IjM3LjUiIGZpbGw9IiM4ZGM1M2YiIGNsYXNzPSJCIi8+PHBhdGggZD0iTTUzLjE4NiA1My41NjJoOS4xMDd2Ny41MTZoLTkuMTA3em0tMjAuMjQgMGg5LjEwN3Y3LjUxNmgtOS4xMDd6bS0yMC4yNCAwaDkuMTA3djcuNTE2aC05LjEwN3pNMjcuNDYyIDcuMDRoMjAuMDc2djguODdIMjcuNDYyem04LjE2MiAxMS40ODN2Ny40OWgtMjAuMDhWNDkuMDNoMy43NVYyOS43NjNoMTYuMzN2MTkuMjUyaDMuNzVWMjkuNzYzaDE2LjMzVjQ5LjA0aDMuNzVWMjYuMDEzaC0yMC4wOHYtNy40OXoiIGZpbGw9IiNmZmYiIHBhaW50LW9yZGVyPSJub3JtYWwiIGNsYXNzPSJCIi8+PC9zdmc+;verticalAlign=top;" parent="1" vertex="1">
                    <mxGeometry x="520" y="16" width="60" height="60" as="geometry"/>
                </mxCell>
                <UserObject placeholders="1" label="Data Center (Active)" Icon-Name="data--center" id="miscdiagram_r1vBKtAXY_33dyRA0KvjKt">
                    <mxCell style="shape=mxgraph.ibm2mondrian.base;shapeType=pg;shapeLayout=expanded;colorFamily=blue;colorBackground=noColor:noColor;html=1;whiteSpace=wrap;metaEdit=1;strokeWidth=1;collapsible=0;recursiveResize=0;expand=0;fontFamily=IBM Plex Sans;fontColor=#000000;fontSize=14;image=;verticalAlign=top;align=left;spacing=0;spacingLeft=12;spacingRight=16;spacingTop=0;spacingBottom=0;container=1" parent="1" vertex="1">
                        <mxGeometry x="12" y="102" width="524" height="688" as="geometry"/>
                    </mxCell>
                </UserObject>
                <UserObject placeholders="1" label="OpenShift Cluster 1" Icon-Name="logo--openshift" id="miscdiagram_r1vBKtAXY_43dyRA0Kij4S">
                    <mxCell style="shape=mxgraph.ibm2mondrian.base;shapeType=pg;shapeLayout=expanded;colorFamily=blue;colorBackground=noColor:noColor;html=1;whiteSpace=wrap;metaEdit=1;strokeWidth=1;collapsible=0;recursiveResize=0;expand=0;fontFamily=IBM Plex Sans;fontColor=#000000;fontSize=14;image=;verticalAlign=top;align=left;spacing=0;spacingLeft=12;spacingRight=16;spacingTop=0;spacingBottom=0;container=1" parent="miscdiagram_r1vBKtAXY_33dyRA0KvjKt" vertex="1">
                        <mxGeometry x="10" y="56" width="502" height="608" as="geometry"/>
                    </mxCell>
                </UserObject>
                <UserObject placeholders="1" label="Router" Icon-Name="router" id="miscdiagram_r1vBKtAXY_53dyRA0KbdGO">
                    <mxCell style="shape=mxgraph.ibm2mondrian.base;shapeType=ln;shapeLayout=collapsed;colorFamily=blue;colorBackground=noColor:noColor;html=1;whiteSpace=wrap;metaEdit=1;strokeWidth=1;collapsible=0;recursiveResize=0;expand=0;fontFamily=IBM Plex Sans;fontColor=#000000;fontSize=14;image=;verticalAlign=top;align=center;spacing=0;spacingLeft=0;spacingRight=0;spacingTop=0;spacingBottom=0;verticalLabelPosition=bottom;labelPosition=center;positionText=bottom;container=1" parent="miscdiagram_r1vBKtAXY_43dyRA0Kij4S" vertex="1">
                        <mxGeometry x="198" y="-23" width="48" height="48" as="geometry"/>
                    </mxCell>
                </UserObject>
                <UserObject placeholders="1" label="Worker Node" Icon-Name="cloud" _id="userobject_31WyEjwNlAQ" id="miscdiagram_r1vBKtAXY_63dyRA0KOyjn">
                    <mxCell style="shape=mxgraph.ibm2mondrian.base;shapeType=lg;shapeLayout=expanded;colorFamily=blue;colorBackground=noColor:noColor;html=1;whiteSpace=wrap;metaEdit=1;strokeWidth=1;collapsible=0;recursiveResize=0;expand=0;fontFamily=IBM Plex Sans;fontColor=#000000;fontSize=14;image=;verticalAlign=top;align=left;spacing=0;spacingLeft=12;spacingRight=16;spacingTop=0;spacingBottom=0;container=1" parent="miscdiagram_r1vBKtAXY_43dyRA0Kij4S" vertex="1">
                        <mxGeometry x="6" y="90" width="482" height="230" as="geometry"/>
                    </mxCell>
                </UserObject>
                <UserObject placeholders="1" label="CP4BA" Icon-Name="cube" _id="userobject_31WyEjwGBlt" id="miscdiagram_r1vBKtAXY_73dyRA0KRany">
                    <mxCell style="shape=mxgraph.ibm2mondrian.base;shapeType=lg;shapeLayout=expanded;colorFamily=green;colorBackground=noColor:noColor;html=1;whiteSpace=wrap;metaEdit=1;strokeWidth=1;collapsible=0;recursiveResize=0;expand=0;fontFamily=IBM Plex Sans;fontColor=#000000;fontSize=14;image=;verticalAlign=middle;align=left;spacing=0;spacingLeft=12;spacingRight=16;spacingTop=0;spacingBottom=0;container=1" parent="miscdiagram_r1vBKtAXY_63dyRA0KOyjn" vertex="1">
                        <mxGeometry x="168" y="34" width="144" height="68" as="geometry"/>
                    </mxCell>
                </UserObject>
                <mxCell id="miscdiagram_r1vBKtAXY_103dyRA0Kr29S" value="Persistent Volume" style="shape=cylinder;whiteSpace=wrap;html=1;boundedLbl=1;backgroundOutline=1;" parent="miscdiagram_r1vBKtAXY_43dyRA0Kij4S" vertex="1">
                    <mxGeometry x="298" y="442" width="70" height="90" as="geometry"/>
                </mxCell>
                <mxCell id="miscdiagram_r1vBKtAXY_113dyRA0K7jyS" value="" style="edgeStyle=segmentEdgeStyle;endArrow=classic;html=1;jumpStyle=arc;jumpSize=8;rounded=1;exitX=0.491;exitY=1.017;exitPerimeter=0;entryX=0.5;entryY=0;" parent="miscdiagram_r1vBKtAXY_43dyRA0Kij4S" source="miscdiagram_r1vBKtAXY_63dyRA0KOyjn" target="miscdiagram_r1vBKtAXY_103dyRA0Kr29S" edge="1">
                    <mxGeometry width="50" height="50" relative="1" as="geometry">
                        <mxPoint x="226" y="570" as="sourcePoint"/>
                        <mxPoint x="276" y="520" as="targetPoint"/>
                        <Array as="points">
                            <mxPoint x="243" y="394"/>
                            <mxPoint x="333" y="394"/>
                        </Array>
                    </mxGeometry>
                </mxCell>
                <UserObject placeholders="1" label="Data Center (Passive)" Icon-Name="data--center" _id="userobject_31WB8sHgf1F" id="miscdiagram_r1vBKtAXY_123dyRA0Knksu">
                    <mxCell style="shape=mxgraph.ibm2mondrian.base;shapeType=pg;shapeLayout=expanded;colorFamily=blue;colorBackground=noColor:noColor;html=1;whiteSpace=wrap;metaEdit=1;strokeWidth=1;collapsible=0;recursiveResize=0;expand=0;fontFamily=IBM Plex Sans;fontColor=#000000;fontSize=14;image=;verticalAlign=top;align=left;spacing=0;spacingLeft=12;spacingRight=16;spacingTop=0;spacingBottom=0;container=1" parent="1" vertex="1">
                        <mxGeometry x="592" y="102" width="492" height="688" as="geometry"/>
                    </mxCell>
                </UserObject>
                <UserObject placeholders="1" label="OpenShift Cluster 2" Icon-Name="logo--openshift" _id="userobject_31WB8sI4A6U" id="miscdiagram_r1vBKtAXY_133dyRA0KNgVN">
                    <mxCell style="shape=mxgraph.ibm2mondrian.base;shapeType=pg;shapeLayout=expanded;colorFamily=blue;colorBackground=noColor:noColor;html=1;whiteSpace=wrap;metaEdit=1;strokeWidth=1;collapsible=0;recursiveResize=0;expand=0;fontFamily=IBM Plex Sans;fontColor=#000000;fontSize=14;image=;verticalAlign=top;align=left;spacing=0;spacingLeft=12;spacingRight=16;spacingTop=0;spacingBottom=0;container=1;labelBackgroundColor=none;" parent="miscdiagram_r1vBKtAXY_123dyRA0Knksu" vertex="1">
                        <mxGeometry x="8" y="56" width="456" height="608" as="geometry"/>
                    </mxCell>
                </UserObject>
                <UserObject placeholders="1" label="Router" Icon-Name="router" id="miscdiagram_r1vBKtAXY_143dyRA0KAkDA">
                    <mxCell style="shape=mxgraph.ibm2mondrian.base;shapeType=ln;shapeLayout=collapsed;colorFamily=blue;colorBackground=noColor:noColor;html=1;whiteSpace=wrap;metaEdit=1;strokeWidth=1;collapsible=0;recursiveResize=0;expand=0;fontFamily=IBM Plex Sans;fontColor=#000000;fontSize=14;image=;verticalAlign=top;align=center;spacing=0;spacingLeft=0;spacingRight=0;spacingTop=0;spacingBottom=0;verticalLabelPosition=bottom;labelPosition=center;positionText=bottom;container=1" parent="miscdiagram_r1vBKtAXY_133dyRA0KNgVN" vertex="1">
                        <mxGeometry x="198" y="-23" width="48" height="48" as="geometry"/>
                    </mxCell>
                </UserObject>
                <mxCell id="miscdiagram_r1vBKtAXY_173dyRA0KL9eB" value="" style="group;verticalAlign=top;" parent="miscdiagram_r1vBKtAXY_133dyRA0KNgVN" vertex="1" connectable="0">
                    <mxGeometry x="6" y="84" width="432" height="240" as="geometry"/>
                </mxCell>
                <UserObject placeholders="1" label="Worker Node" Icon-Name="cloud" _id="userobject_31WyEjwNlAQ" id="miscdiagram_r1vBKtAXY_183dyRA0KLQAz">
                    <mxCell style="shape=mxgraph.ibm2mondrian.base;shapeType=lg;shapeLayout=expanded;colorFamily=blue;colorBackground=noColor:noColor;html=1;whiteSpace=wrap;metaEdit=1;strokeWidth=1;collapsible=0;recursiveResize=0;expand=0;fontFamily=IBM Plex Sans;fontColor=#000000;fontSize=14;image=;verticalAlign=top;align=left;spacing=0;spacingLeft=12;spacingRight=16;spacingTop=0;spacingBottom=0;container=1" parent="miscdiagram_r1vBKtAXY_173dyRA0KL9eB" vertex="1">
                        <mxGeometry width="432" height="240" as="geometry"/>
                    </mxCell>
                </UserObject>
                <UserObject placeholders="1" label="CP4BA (Inactive)" Icon-Name="cube" _id="userobject_31WyEjwGBlt" id="miscdiagram_r1vBKtAXY_203dyRA0KvltN">
                    <mxCell style="shape=mxgraph.ibm2mondrian.base;shapeType=lg;shapeLayout=expanded;colorFamily=green;colorBackground=noColor:noColor;html=1;whiteSpace=wrap;metaEdit=1;strokeWidth=1;collapsible=0;recursiveResize=0;expand=0;fontFamily=IBM Plex Sans;fontColor=#000000;fontSize=14;image=;verticalAlign=middle;align=left;spacing=0;spacingLeft=12;spacingRight=16;spacingTop=0;spacingBottom=0;container=1;textOpacity=50;" parent="miscdiagram_r1vBKtAXY_183dyRA0KLQAz" vertex="1">
                        <mxGeometry x="130" y="40" width="144" height="68" as="geometry"/>
                    </mxCell>
                </UserObject>
                <mxCell id="miscdiagram_r1vBKtAXY_153dyRA0KqO8V" value="Persistent Volume" style="shape=cylinder;whiteSpace=wrap;html=1;boundedLbl=1;backgroundOutline=1;" parent="miscdiagram_r1vBKtAXY_133dyRA0KNgVN" vertex="1">
                    <mxGeometry x="246" y="434" width="70" height="90" as="geometry"/>
                </mxCell>
                <mxCell id="miscdiagram_r1vBKtAXY_163dyRA0KxCGx" value="" style="edgeStyle=segmentEdgeStyle;endArrow=classic;html=1;jumpStyle=arc;jumpSize=8;rounded=1;exitX=0.507;exitY=1;exitPerimeter=0;entryX=0.5;entryY=0;" parent="miscdiagram_r1vBKtAXY_133dyRA0KNgVN" source="miscdiagram_r1vBKtAXY_183dyRA0KLQAz" target="miscdiagram_r1vBKtAXY_153dyRA0KqO8V" edge="1">
                    <mxGeometry width="50" height="50" relative="1" as="geometry">
                        <mxPoint x="226" y="570" as="sourcePoint"/>
                        <mxPoint x="276" y="520" as="targetPoint"/>
                        <Array as="points">
                            <mxPoint x="225" y="386"/>
                            <mxPoint x="281" y="386"/>
                        </Array>
                    </mxGeometry>
                </mxCell>
                <mxCell id="6" value="" style="group" vertex="1" connectable="0" parent="miscdiagram_r1vBKtAXY_123dyRA0Knksu">
                    <mxGeometry x="-384" y="266" width="704" height="76" as="geometry"/>
                </mxCell>
                <mxCell id="2" value="" style="rounded=1;whiteSpace=wrap;html=1;" vertex="1" parent="6">
                    <mxGeometry width="704" height="76" as="geometry"/>
                </mxCell>
                <mxCell id="3" value="DB Primary" style="rounded=0;whiteSpace=wrap;html=1;" vertex="1" parent="6">
                    <mxGeometry x="24" y="9" width="120" height="60" as="geometry"/>
                </mxCell>
                <mxCell id="5" value="DB Secondary" style="rounded=0;whiteSpace=wrap;html=1;" vertex="1" parent="6">
                    <mxGeometry x="559" y="9" width="120" height="60" as="geometry"/>
                </mxCell>
                <mxCell id="miscdiagram_r1vBKtAXY_233dyRA0Ku2tu" value="" style="shape=flexArrow;endArrow=classic;startArrow=classic;html=1;jumpStyle=arc;jumpSize=8;rounded=1;fontSize=14;" parent="6" edge="1">
                    <mxGeometry width="50" height="50" relative="1" as="geometry">
                        <mxPoint x="144" y="37.889999999999986" as="sourcePoint"/>
                        <mxPoint x="548" y="37.889999999999986" as="targetPoint"/>
                    </mxGeometry>
                </mxCell>
                <mxCell id="miscdiagram_r1vBKtAXY_243dyRA0K1GVX" value="&lt;font style=&quot;font-size: 17px&quot;&gt;Tunnel&lt;/font&gt;" style="text;html=1;resizable=0;points=[];align=center;verticalAlign=middle;labelBackgroundColor=#ffffff;" parent="miscdiagram_r1vBKtAXY_233dyRA0Ku2tu" vertex="1" connectable="0">
                    <mxGeometry x="0.2986" y="-1" relative="1" as="geometry">
                        <mxPoint as="offset"/>
                    </mxGeometry>
                </mxCell>
                <mxCell id="miscdiagram_r1vBKtAXY_213dyRA0KeWQa" value="" style="edgeStyle=segmentEdgeStyle;endArrow=classic;html=1;jumpStyle=arc;jumpSize=8;rounded=1;entryX=0.5;entryY=0.021;entryPerimeter=0;exitX=0;exitY=0.5;" parent="1" source="miscdiagram_r1vBKtAXY_23dyRA0K81O1" target="miscdiagram_r1vBKtAXY_53dyRA0KbdGO" edge="1">
                    <mxGeometry width="50" height="50" relative="1" as="geometry">
                        <mxPoint x="304" y="82" as="sourcePoint"/>
                        <mxPoint x="354" y="32" as="targetPoint"/>
                        <Array as="points">
                            <mxPoint x="244" y="46"/>
                        </Array>
                    </mxGeometry>
                </mxCell>
                <mxCell id="miscdiagram_r1vBKtAXY_223dyRA0KDuXy" value="" style="edgeStyle=segmentEdgeStyle;endArrow=classic;html=1;jumpStyle=arc;jumpSize=8;rounded=1;dashed=1;entryX=0.5;entryY=0.021;entryPerimeter=0;exitX=1;exitY=0.5;" parent="1" source="miscdiagram_r1vBKtAXY_23dyRA0K81O1" target="miscdiagram_r1vBKtAXY_143dyRA0KAkDA" edge="1">
                    <mxGeometry width="50" height="50" relative="1" as="geometry">
                        <mxPoint x="744" y="82" as="sourcePoint"/>
                        <mxPoint x="794" y="32" as="targetPoint"/>
                    </mxGeometry>
                </mxCell>
            </root>
        </mxGraphModel>
    </diagram>
</mxfile>